<svg id="Layer_1" enable-background="new 0 0 512 512" height="512" viewBox="0 0 512 512" width="512" xmlns="http://www.w3.org/2000/svg"><g><path d="m67.385 380.425h22.45v-39.586h-5.498z"/><path d="m12.118 340.839c-4.215 0-7.632 3.417-7.632 7.632v24.322c0 4.215 3.417 7.632 7.632 7.632h11.171l16.951-39.586z"/><path d="m210.52 340.839v39.586h19.632l16.951-39.586z"/><path d="m503.793 192.984c2.715-.767 4.294-3.589 3.527-6.303l-8.101-28.686c-.767-2.715-3.589-4.294-6.304-3.527l-92.018 25.984c-3.649 1.03-4.943 5.537-2.397 8.346l22.352 24.662c1.302 1.437 3.306 2.012 5.173 1.485l23.696-6.691 1.733 6.138c.576 2.04 2.696 3.226 4.736 2.65l2.786-.787v22.22h-15.906c-6.915 0-12.521 5.606-12.521 12.521v89.844h-36.174l-16.952 39.586h53.125v102.773c-6.813 0-12.336 5.523-12.336 12.336v16.465h75.086c6.915 0 12.521-5.606 12.521-12.521v-248.484c0-6.915-5.606-12.521-12.521-12.521h-15.934v-27.412l5.521-1.559c2.039-.576 3.226-2.696 2.65-4.736l-1.733-6.138zm-16.215-16.216c-2.513.71-5.125-.752-5.835-3.265s.752-5.125 3.265-5.835 5.125.752 5.835 3.265-.752 5.126-3.265 5.835z"/><path d="m291.199 340.839-16.951 39.586h59.08l16.951-39.586z"/><path d="m224.125 327.151c10.652 0 19.286-8.635 19.286-19.286v-124.709c0-24.359-19.818-44.177-44.177-44.177h-23.14c-.139.821-6.024 35.169-18.897 44.963l1.954-9.279c.065-.306.067-.622.006-.929l-2.295-10.664c-.215-1.092-1.172-1.88-2.285-1.88h-8.799c-1.113 0-2.071.787-2.286 1.88l-2.294 10.664c-.06.307-.058.623.006.929l1.954 9.279c-12.873-9.795-18.757-44.142-18.896-44.963h-23.642c-24.236 0-44.053 19.718-44.176 43.955 0 .144-.327 124.814-.327 124.93 0 10.652 8.635 19.286 19.286 19.286 10.652 0 19.286-8.635 19.286-19.286 0-.115.325-124.592.326-124.736.016-3.074 2.53-5.576 5.604-5.576h1.318c0 .131-.274 311.636-.274 311.763 0 12.115 9.822 21.937 21.938 21.937s21.937-9.822 21.937-21.937v-174.709h9.277v174.709c0 12.115 9.822 21.937 21.937 21.937s21.938-9.822 21.938-21.937c-.001-1.711-.256-291.6-.274-311.763h.817c3.09 0 5.604 2.514 5.604 5.604v124.708c.001 10.652 8.636 19.287 19.288 19.287z"/><path d="m143.114 138.957c-1.776 0-3.116 1.611-2.794 3.357l2.326 12.599c.249 1.347 1.424 2.325 2.794 2.325h9.474c1.37 0 2.545-.978 2.794-2.325l2.326-12.599c.322-1.746-1.018-3.357-2.794-3.357z"/><path d="m186.971 87.148c-9.141 7.079-22.866 11.76-37.612 11.76-14.747 0-28.471-4.684-37.61-11.771-1.835 22.324 15.826 40.882 37.611 40.882 21.766 0 39.44-18.54 37.611-40.871z"/><path d="m112.259 60.552v7.105c.014 8.433 16.604 19.422 37.1 19.422s37.1-10.989 37.114-19.422v-7.11c10.22-3.269 16.841-9.405 16.841-19.964-.001-18.065-23.263-40.583-53.955-40.583-30.93 0-53.953 22.673-53.953 40.583-.001 10.657 6.741 16.737 16.853 19.969zm37.1-21.506c3.467 0 7.346 5.606 7.346 13.107s-3.878 13.106-7.346 13.106-7.346-5.605-7.346-13.106 3.878-13.107 7.346-13.107z"/></g></svg>